<?xml version="1.0" standalone="no"?>
<!DOCTYPE svg PUBLIC "-//W3C//DTD SVG 20010904//EN"
 "http://www.w3.org/TR/2001/REC-SVG-20010904/DTD/svg10.dtd">
<svg version="1.0" xmlns="http://www.w3.org/2000/svg"
 width="48.000000pt" height="48.000000pt" viewBox="0 0 48.000000 48.000000"
 preserveAspectRatio="xMidYMid meet">

<g transform="translate(0.000000,48.000000) scale(0.100000,-0.100000)"
fill="#000000" stroke="none">
<path d="M191 388 c-78 -105 -111 -194 -91 -252 11 -34 70 -96 91 -96 6 0 1 9
-12 19 -39 31 -33 94 14 164 20 32 42 57 47 57 15 0 79 -101 86 -137 10 -49
-15 -80 -71 -88 -25 -4 -45 -12 -45 -17 0 -17 80 -2 109 19 95 72 88 170 -25
323 -24 33 -48 60 -54 60 -5 0 -27 -24 -49 -52z"/>
</g>
</svg>
